<?xml version="1.0" standalone="no"?>
<!DOCTYPE svg PUBLIC "-//W3C//DTD SVG 20010904//EN"
 "http://www.w3.org/TR/2001/REC-SVG-20010904/DTD/svg10.dtd">
<svg version="1.0" xmlns="http://www.w3.org/2000/svg"
 width="84.000000pt" height="84.000000pt" viewBox="0 0 84.000000 84.000000"
 preserveAspectRatio="xMidYMid meet">
<metadata>
Created by potrace 1.14, written by Peter Selinger 2001-2017
</metadata>
<g transform="translate(0.000000,84.000000) scale(0.100000,-0.100000)"
fill="#000000" stroke="none">
<path d="M312 812 c-29 -11 -55 -21 -58 -24 -21 -22 -17 -198 4 -198 4 0 29 7
56 15 62 19 146 19 216 1 41 -11 57 -11 62 -3 11 17 10 135 -1 141 -5 3 -7 15
-4 26 13 48 -176 77 -275 42z m136 -29 c-10 -2 -28 -2 -40 0 -13 2 -5 4 17 4
22 1 32 -1 23 -4z"/>
<path d="M638 743 c5 -10 6 -52 2 -93 l-8 -75 49 -44 c54 -47 83 -95 95 -156
6 -36 8 -37 21 -19 11 14 14 39 10 99 -4 67 -11 93 -41 153 -20 40 -55 90 -77
112 -44 42 -66 52 -51 23z"/>
<path d="M152 716 c-54 -62 -101 -157 -111 -227 -10 -72 -1 -145 17 -142 7 2
12 -6 12 -17 0 -28 60 -84 124 -114 30 -14 57 -26 60 -26 3 0 6 13 6 29 0 19
10 40 29 59 l30 29 -33 69 c-18 38 -39 87 -46 109 -18 57 -19 58 -47 39 -40
-25 -72 -64 -99 -119 -24 -46 -25 -47 -20 -16 8 47 59 124 101 152 l35 24 -7
70 c-3 39 -7 72 -9 74 -2 2 1 12 7 22 17 33 -16 22 -49 -15z"/>
<path d="M385 594 c-11 -2 -44 -9 -72 -15 -42 -8 -53 -14 -53 -30 0 -22 55
-197 69 -219 7 -10 32 -15 90 -17 67 -1 82 1 90 15 15 28 71 204 71 222 0 11
-13 21 -37 28 -47 13 -131 22 -158 16z"/>
<path d="M605 504 c-8 -20 -15 -40 -15 -45 0 -5 -16 -41 -35 -81 l-35 -72 30
-31 c16 -17 30 -41 30 -52 0 -12 4 -24 10 -28 14 -9 92 31 139 71 45 39 49 59
29 127 -12 40 -105 147 -127 147 -6 0 -18 -16 -26 -36z"/>
<path d="M783 303 c-11 -30 -99 -95 -151 -112 -32 -11 -42 -20 -47 -41 -3 -16
-16 -36 -28 -46 l-21 -19 17 27 c10 16 15 40 13 60 -2 18 -4 41 -5 51 -1 21
-36 57 -55 57 -8 0 -17 -10 -19 -22 l-4 -23 -2 23 c-1 27 -40 44 -90 40 -32
-3 -36 -6 -33 -28 2 -23 2 -24 -11 -6 -19 26 -45 14 -63 -30 -11 -25 -12 -39
-5 -48 6 -7 9 -15 6 -18 -3 -2 0 -19 5 -37 8 -27 7 -31 -5 -21 -7 6 -16 24
-20 39 -5 22 -15 31 -48 41 -53 16 -144 79 -151 105 -3 10 -8 16 -11 13 -12
-12 57 -134 102 -179 25 -26 63 -55 85 -65 38 -17 41 -17 76 2 20 10 40 23 44
29 5 6 8 3 8 -7 0 -9 8 -19 18 -21 9 -3 3 -5 -14 -6 -16 0 -39 -7 -50 -15 -18
-14 -18 -15 9 -21 64 -17 207 -6 207 15 0 5 -16 12 -36 16 -30 5 -34 8 -20 16
12 7 28 4 54 -8 35 -16 37 -16 80 6 24 13 60 43 81 66 44 51 104 159 98 177
-3 7 -8 3 -14 -10z"/>
</g>
</svg>
