<svg id="visual" viewBox="0 0 900 600" width="900" height="600" xmlns="http://www.w3.org/2000/svg" xmlns:xlink="http://www.w3.org/1999/xlink" version="1.1"><path d="M0 217L13.7 202C27.3 187 54.7 157 82 170C109.3 183 136.7 239 163.8 263C191 287 218 279 245.2 277C272.3 275 299.7 279 327 275C354.3 271 381.7 259 409 257C436.3 255 463.7 263 491 251C518.3 239 545.7 207 573 193C600.3 179 627.7 183 654.8 177C682 171 709 155 736.2 143C763.3 131 790.7 123 818 131C845.3 139 872.7 163 886.3 175L900 187L900 0L886.3 0C872.7 0 845.3 0 818 0C790.7 0 763.3 0 736.2 0C709 0 682 0 654.8 0C627.7 0 600.3 0 573 0C545.7 0 518.3 0 491 0C463.7 0 436.3 0 409 0C381.7 0 354.3 0 327 0C299.7 0 272.3 0 245.2 0C218 0 191 0 163.8 0C136.7 0 109.3 0 82 0C54.7 0 27.3 0 13.7 0L0 0Z" fill="#004cbb"></path><path d="M0 337L13.7 310C27.3 283 54.7 229 82 231C109.3 233 136.7 291 163.8 319C191 347 218 345 245.2 349C272.3 353 299.7 363 327 361C354.3 359 381.7 345 409 335C436.3 325 463.7 319 491 309C518.3 299 545.7 285 573 276C600.3 267 627.7 263 654.8 260C682 257 709 255 736.2 245C763.3 235 790.7 217 818 213C845.3 209 872.7 219 886.3 224L900 229L900 185L886.3 173C872.7 161 845.3 137 818 129C790.7 121 763.3 129 736.2 141C709 153 682 169 654.8 175C627.7 181 600.3 177 573 191C545.7 205 518.3 237 491 249C463.7 261 436.3 253 409 255C381.7 257 354.3 269 327 273C299.7 277 272.3 273 245.2 275C218 277 191 285 163.8 261C136.7 237 109.3 181 82 168C54.7 155 27.3 185 13.7 200L0 215Z" fill="#0059dd"></path><path d="M0 391L13.7 365C27.3 339 54.7 287 82 286C109.3 285 136.7 335 163.8 359C191 383 218 381 245.2 387C272.3 393 299.7 407 327 409C354.3 411 381.7 401 409 395C436.3 389 463.7 387 491 375C518.3 363 545.7 341 573 330C600.3 319 627.7 319 654.8 324C682 329 709 339 736.2 327C763.3 315 790.7 281 818 273C845.3 265 872.7 283 886.3 292L900 301L900 227L886.3 222C872.7 217 845.3 207 818 211C790.7 215 763.3 233 736.2 243C709 253 682 255 654.8 258C627.7 261 600.3 265 573 274C545.7 283 518.3 297 491 307C463.7 317 436.3 323 409 333C381.7 343 354.3 357 327 359C299.7 361 272.3 351 245.2 347C218 343 191 345 163.8 317C136.7 289 109.3 231 82 229C54.7 227 27.3 281 13.7 308L0 335Z" fill="#0066ff"></path><path d="M0 517L13.7 506C27.3 495 54.7 473 82 468C109.3 463 136.7 475 163.8 484C191 493 218 499 245.2 503C272.3 507 299.7 509 327 514C354.3 519 381.7 527 409 531C436.3 535 463.7 535 491 525C518.3 515 545.7 495 573 495C600.3 495 627.7 515 654.8 523C682 531 709 527 736.2 529C763.3 531 790.7 539 818 523C845.3 507 872.7 467 886.3 447L900 427L900 299L886.3 290C872.7 281 845.3 263 818 271C790.7 279 763.3 313 736.2 325C709 337 682 327 654.8 322C627.7 317 600.3 317 573 328C545.7 339 518.3 361 491 373C463.7 385 436.3 387 409 393C381.7 399 354.3 409 327 407C299.7 405 272.3 391 245.2 385C218 379 191 381 163.8 357C136.7 333 109.3 283 82 284C54.7 285 27.3 337 13.7 363L0 389Z" fill="#3c80ff"></path><path d="M0 601L13.7 601C27.3 601 54.7 601 82 601C109.3 601 136.7 601 163.8 601C191 601 218 601 245.2 601C272.3 601 299.7 601 327 601C354.3 601 381.7 601 409 601C436.3 601 463.7 601 491 601C518.3 601 545.7 601 573 601C600.3 601 627.7 601 654.8 601C682 601 709 601 736.2 601C763.3 601 790.7 601 818 601C845.3 601 872.7 601 886.3 601L900 601L900 425L886.3 445C872.7 465 845.3 505 818 521C790.7 537 763.3 529 736.2 527C709 525 682 529 654.8 521C627.7 513 600.3 493 573 493C545.7 493 518.3 513 491 523C463.7 533 436.3 533 409 529C381.7 525 354.3 517 327 512C299.7 507 272.3 505 245.2 501C218 497 191 491 163.8 482C136.7 473 109.3 461 82 466C54.7 471 27.3 493 13.7 504L0 515Z" fill="#6198ff"></path></svg>